# xmcd
#
# Track frame offsets:
#	150
#	25492
#	47936
#	67378
#	90528
#	109132
#	130667
#	149811
#	163682
#	186280
#	207258
#
# Disc length: 3046 seconds
#
# Revision: 2
# Processed by: cddbd v1.5.2PL0 Copyright (c) Steve Scherf et al.
# Submitted via: EZCDAudioConverter 8.0.2.1
#
DISCID=ad0be40b
DTITLE=Various Artist - Mẹ Fatima [CD1)
DYEAR=2017
DGENRE=Contemporary Pop
TTITLE0=V.A - LK Lời mẹ nhắn nhủ, Đền tạ từ trái tim, Nữ vương Mân côi
TTITLE1=Đặng Thế Luân - Bầu trời Famita
TTITLE2=Diễm Ngân - Mẹ có thấu
TTITLE3=Duy Thành - Giọt lệ ăn năn
TTITLE4=Thế Sơn - Cung chiêm ảnh Mẹ
TTITLE5=Anh Tuấn and Diễm Liên - Trên con đường về quê
TTITLE6=Hồ Hoàng Yến - Xin vâng
TTITLE7=Thanh Trúc - Mẹ đẹp tươi
TTITLE8=Lê Quốc Tuấn - Ave Maria Con dâng lời
TTITLE9=V.A - Đường đời dâng mẹ
TTITLE10=V.A - LK Dâng hoa Mùa hoa đẹp tươi đã về, Bông hồng dâng mẹ, Mùa hoa 
TTITLE10=về rồi
EXTD=
EXTT0=
EXTT1=
EXTT2=
EXTT3=
EXTT4=
EXTT5=
EXTT6=
EXTT7=
EXTT8=
EXTT9=
EXTT10=
PLAYORDER=
